<?xml version="1.0" encoding="utf-8"?>
<!-- Generator: Adobe Illustrator 27.2.0, SVG Export Plug-In . SVG Version: 6.00 Build 0)  -->
<svg version="1.1" id="Layer_1" xmlns="http://www.w3.org/2000/svg" xmlns:xlink="http://www.w3.org/1999/xlink" x="0px" y="0px"
	 viewBox="0 0 2048 2048" style="enable-background:new 0 0 2048 2048;" xml:space="preserve">
<style type="text/css">
	.st0{fill:#993399;}
</style>
<g>
	<g>
		<path class="st0" d="M607.27,684.34h6.66c11.53,0,24.85,1.79,39.96,5.33c15.09,3.56,28.84,9.32,41.29,17.31
			c12.42,7.99,23.08,19.1,31.97,33.3c8.86,14.21,13.32,31.97,13.32,53.28c0,17.77-3.33,32.86-9.99,45.28
			c-6.66,12.44-15.32,22.64-25.97,30.63c-10.65,7.99-22.21,13.78-34.63,17.31c-12.44,3.56-24.43,5.33-35.96,5.33
			c-10.65,0-21.31-2.66-31.97-7.99c-10.65-5.33-19.98-12.19-27.97-20.64c-7.99-8.43-14.65-17.75-19.98-27.97
			c-5.33-10.2-7.99-20.19-7.99-29.97c0-8.86,3.33-20.19,9.99-33.96c6.66-13.76,14.86-23.31,24.64-28.64
			c-5.33-5.33-7.99-12.86-7.99-22.64c0-7.99,2.66-15.52,7.99-22.64C585.96,690.56,594.82,686.13,607.27,684.34z M607.27,1190.46
			h6.66c11.53,0,24.85,1.79,39.96,5.33c15.09,3.56,28.84,9.32,41.29,17.32c12.42,7.99,23.08,19.1,31.97,33.3
			c8.86,14.21,13.32,31.96,13.32,53.28c0,17.77-3.33,32.86-9.99,45.28c-6.66,12.44-15.32,22.64-25.97,30.63
			s-22.21,13.78-34.63,17.32c-12.44,3.56-24.43,5.33-35.96,5.33c-10.65,0-21.31-2.66-31.97-7.99
			c-10.65-5.33-19.98-12.19-27.97-20.64c-7.99-8.43-14.65-17.75-19.98-27.97c-5.33-10.2-7.99-20.19-7.99-29.97
			c0-8.86,3.33-20.19,9.99-33.96c6.66-13.76,14.86-23.31,24.64-28.64c-5.33-5.33-7.99-12.86-7.99-22.64
			c0-7.99,2.66-15.52,7.99-22.64C585.96,1196.68,594.82,1192.25,607.27,1190.46z"/>
	</g>
	<g>
		<path class="st0" d="M962.92,685.07c-7.12-9.76-10.66-18.65-10.66-26.64c0-13.32,6.2-24.85,18.65-34.63
			c12.42-9.76,25.31-14.65,38.63-14.65c8.86,0,17.09,2.89,24.64,8.66c7.53,5.78,14.65,13.11,21.31,21.98
			c6.66,8.89,12.86,17.98,18.65,27.3c5.76,9.32,10.86,17.98,15.32,25.97c20.42-17.75,43.49-32.84,69.26-45.28
			c25.74-12.42,54.61-18.65,86.57-18.65c46.16,0,85.01,7.33,116.54,21.98c31.51,14.65,57.27,33.96,77.25,57.94
			c19.98,23.97,34.84,51.28,44.62,81.91c9.76,30.63,15.53,61.93,17.31,93.9c0,25.76-4.89,52.84-14.65,81.24
			c-9.78,28.43-24.43,54.84-43.95,79.25c-19.54,24.43-44.41,44.62-74.59,60.6c-30.2,15.98-65.72,23.97-106.55,23.97
			c-23.97,0-45.95-2.21-65.93-6.66c-19.98-4.43-38.42-10.2-55.27-17.31c0,53.28-0.9,103.89-2.66,151.83
			c-1.79,47.95-4.89,87.91-9.32,119.87c-1.79,13.32-7.33,23.31-16.65,29.97c-9.32,6.66-18.87,9.99-28.64,9.99
			c-15.11,0-28.64-4-40.62-11.99c-11.99-7.99-17.98-19.1-17.98-33.3c0-37.29,1.54-80.79,4.66-130.53
			c3.1-49.72,4.66-101.66,4.66-155.83c0-51.49-0.46-102.56-1.33-153.17c-0.89-50.61-2.66-95.9-5.33-135.85
			c-7.99-16.86-17.31-35.07-27.97-54.61C988.22,722.82,976.24,703.71,962.92,685.07z M1129.4,791.62
			c2.66,31.97,4.66,65.49,5.99,100.56c1.33,35.09,2.44,70.38,3.33,105.89c15.09,14.21,32.17,24.2,51.28,29.97
			c19.08,5.79,41.95,8.66,68.59,8.66c26.64,0,48.82-5.76,66.59-17.31c17.75-11.53,31.97-25.74,42.62-42.62
			c10.65-16.86,18.19-34.84,22.64-53.94c4.43-19.08,6.66-36.17,6.66-51.28c-1.79-15.98-5.79-32.4-11.99-49.28
			c-6.22-16.86-15.11-31.97-26.64-45.28c-11.55-13.32-25.97-24.41-43.29-33.3c-17.31-8.87-37.96-13.32-61.93-13.32
			c-31.09,0-56.4,5.79-75.92,17.31C1157.81,759.22,1141.83,773.87,1129.4,791.62z"/>
	</g>
</g>
</svg>
